<?xml version="1.0" encoding="utf-8"?>
<!-- Generator: Adobe Illustrator 16.0.0, SVG Export Plug-In . SVG Version: 6.00 Build 0)  -->
<!DOCTYPE svg PUBLIC "-//W3C//DTD SVG 1.1//EN" "http://www.w3.org/Graphics/SVG/1.1/DTD/svg11.dtd">
<svg version="1.1" id="Layer_1" xmlns="http://www.w3.org/2000/svg" xmlns:xlink="http://www.w3.org/1999/xlink" x="0px" y="0px"
	 width="100px" height="100px" viewBox="0 0 100 100" enable-background="new 0 0 100 100" xml:space="preserve">
<g>
	<g>
		<path fill="#828282" d="M80.576,30.351c1.505-0.052,4.654,0.271,5.325-1.694c0.933-2.733,2.24-6.386,0.313-8.956
			c-3.083-4.113-12.22-3.422-16.637-3.651c-1.754-0.091-2.579-0.119-4.003-1.397c-0.457-0.411-1.498-0.712-2.126-0.627
			c-3.104,0.417-3.978-3.084-5.224-5.202c-1.228-2.087-2.925-3.825-4.767-5.365c-6.3-5.268-16.579-1.557-22.219,2.8
			c-7.249,5.6-7.876,13.569-7.238,22.071c0.426,5.661,1.984,11.14,7.341,13.858c5.213,2.646,14.423,3.5,19.99,2.184
			c3.115-0.737,6.717-2.552,8.327-5.493c1.027-1.877-0.392-5.385-0.921-7.254c-0.073-0.258-0.54-0.137-0.66,0.009
			c-2.122,2.563-3.89,4.653-7.622,4.459c-5.575-1.318-6.273-3.771-2.095-7.359c1.154-0.493,2.341-0.881,3.56-1.162
			c2.157-0.564,4.328-1.095,6.493-1.629c4.774-1.177,9.604-1.14,14.48-1.157c1.592-0.006,3.182,0.04,4.771,0.119
			c0.678,0.039,1.354,0.1,2.028,0.184c2.317,0.25,3.512,3.668,0.768,4.838c-0.461,0.196-0.047,0.528,0.307,0.377
			c1.49-0.635,3.137-3.427,1.97-4.871c-1.532-1.896-7.592-1.118-9.581-1.128c-4.486-0.022-8.946,0.024-13.365,0.861
			c-4.409,0.835-10.248,1.681-13.835,4.579c-5.166,4.172,5.42,9.015,9.164,5.959c1.16-0.947,2.124-2.206,3.093-3.341
			c0.583-0.683-0.212-0.597-0.026,0.084c0.225,0.825,0.409,1.658,0.591,2.493c2.07,9.511-10.799,9.336-17.16,8.924
			c-8.832-0.572-14.947-3.618-16.538-12.754c-0.962-5.528-1.233-11.925,0.827-17.203C29.028,5.908,38.651,1.17,46.82,1.559
			c7.661,0.364,9.786,7.403,13.586,12.498c0.327,0.439,0.983,0.727,1.534,0.647c1.87-0.271,3.266,1.256,5.001,1.611
			c5.96,1.219,19.557-1.488,19.438,7.525c-0.047,3.583-1.92,5.9-5.726,6.032C80.262,29.885,80.08,30.369,80.576,30.351
			L80.576,30.351z"/>
	</g>
</g>
<g>
	<g>
		<path fill="#828282" d="M46.355,12.191c2.622-0.191,4.313,1.542,5.875,3.282c1.199,1.336,2.184,2.017,0.32,2.846
			c-4.188,1.864-7.714,1.084-11.982,0.722c-0.449-0.038-2.276,0.141-1.573,0.135c0.389-0.003,0.894-0.135,1.215-0.357
			c2.534-1.752,3.092-5.794,6.331-6.66c0.425-0.113,0.357-0.365-0.067-0.252c-1.85,0.495-2.946,1.807-4.018,3.341
			c-0.907,1.299-1.782,3.528-3.634,3.623c-0.152,0.008-0.396,0.06-0.493,0.192c-0.07,0.095,0.005,0.123,0.097,0.137
			c2.448,0.381,4.938,0.383,7.384,0.827c3.414,0.619,5.509-1.224,8.759-2.097c0.076-0.021,0.407-0.123,0.306-0.253
			c-2.092-2.688-4.424-6.079-8.214-5.803C46.459,11.89,45.875,12.226,46.355,12.191z"/>
	</g>
</g>
<g>
	<g>
		<path fill="#828282" d="M23.457,12.877c-1.877,5.15-1.639,11.192-1.371,16.588c0.206,4.136,1.217,8.287,3.841,11.556
			c4.154,5.175,12.246,4.832,18.18,4.844c4.049,0.009,4.84,1.454,5.661,4.953c0.299,1.272,0.18,2.695,0.131,3.99
			c-0.154,4.028-0.75,8.054-1.264,12.047c-0.987,7.659-2.685,15.763-2.088,23.515c0.119,1.537,0.202,3.503,1.519,4.54
			c5.034,3.964-3.406,3.408-4.22,3.389c-1.808-0.043-3.615-0.39-5.369-0.797c-3.224-0.749-6.139-2.411-8.697-4.466
			c-9.497-7.628-8.471-21.264-6.776-32.006c0.418-2.651,1.079-5.269,2.135-7.738c2.222-5.195,8.766-3.318,12.555-1.199
			c3.802,2.125,5.11,6.929,5.917,10.89c0.826,4.056,0.828,8.903-1.884,12.273c-2.042,2.536-6.865,3.133-9.484,1.157
			c-3.672-2.771-3.285-9.616-2.992-13.493c0.17-2.257,0.802-4.528,2.172-6.351c0.692-0.92,3.498-2.444,4.264-0.744
			c0.145,0.32,0.862,0.11,0.725-0.193c-1.168-2.594-5.171-0.145-6.067,1.359c-3.056,5.127-3.68,16.881,2.237,20.449
			c2.952,1.781,7.547,0.224,9.751-1.972c4.477-4.458,2.317-13.51,0.248-18.518c-2.023-4.897-10.345-10.355-15.6-6.883
			c-6.14,4.057-5.663,17.268-5.797,23.572c-0.199,9.321,3.747,17.905,12.054,22.504c3.504,1.939,7.938,2.819,11.92,2.718
			c0.538-0.014,6.392-0.015,5.774-1.902c-0.486-1.485-1.745-1.741-2.721-2.866c-0.937-1.081-0.905-3.259-0.967-4.556
			c-0.207-4.337,0.395-8.752,0.894-13.051c0.944-8.126,3.009-16.66,2.483-24.873c-0.111-1.735-0.482-5.308-2.507-5.905
			c-3.969-1.17-8.592-0.268-12.711-0.8c-5.678-0.734-9.631-3.818-11.495-9.242c-2.201-6.407-2.085-16.318,0.243-22.707
			C24.292,12.566,23.566,12.575,23.457,12.877L23.457,12.877z"/>
	</g>
</g>
<g>
	<path fill="#828282" d="M50.344,15.665c0.11,1.802-1.265,3.354-3.068,3.463l0,0c-1.804,0.109-3.355-1.265-3.463-3.068l0,0
		c-0.108-1.803,1.265-3.354,3.069-3.463l0,0C48.685,12.487,50.235,13.86,50.344,15.665L50.344,15.665z"/>
</g>
<g>
	<path fill="#828282" d="M49.805,15.697c0.092,1.504-1.056,2.8-2.562,2.891l0,0c-1.506,0.091-2.801-1.057-2.892-2.562l0,0
		c-0.09-1.505,1.056-2.8,2.562-2.892l0,0C48.419,13.044,49.714,14.191,49.805,15.697L49.805,15.697z"/>
	<g>
		<path fill="#FFFFFF" d="M49.658,15.708c0.023,3.229-4.424,3.695-5.127,0.576c-0.345-1.529,0.925-2.876,2.371-3.042
			c1.496-0.172,2.604,1.142,2.759,2.495c0.016,0.134,0.306,0.063,0.29-0.078c-0.418-3.653-5.768-3.256-5.745,0.379
			c0.01,1.628,1.535,2.668,3.026,2.658c1.609-0.011,2.731-1.509,2.721-3.009C49.951,15.533,49.657,15.577,49.658,15.708z"/>
	</g>
</g>
</svg>
